<?xml version="1.0" encoding="iso-8859-1"?>
<!-- Uploaded to: SVG Repo, www.svgrepo.com, Generator: SVG Repo Mixer Tools -->
<!DOCTYPE svg PUBLIC "-//W3C//DTD SVG 1.1//EN" "http://www.w3.org/Graphics/SVG/1.1/DTD/svg11.dtd">
<svg fill="#000000" version="1.1" id="Capa_1" xmlns="http://www.w3.org/2000/svg" xmlns:xlink="http://www.w3.org/1999/xlink" 
	 width="800px" height="800px" viewBox="0 0 123.197 123.197"
	 xml:space="preserve">
<g>
	<path d="M79.204,33.739c9.304,0,16.867-7.569,16.867-16.871C96.071,7.567,88.508,0,79.204,0c-9.306,0-16.869,7.567-16.869,16.868
		C62.335,26.169,69.899,33.739,79.204,33.739z M79.204,3.098c7.592,0,13.768,6.179,13.768,13.77c0,7.592-6.176,13.768-13.768,13.768
		s-13.769-6.177-13.769-13.768S71.612,3.098,79.204,3.098z M43.461,33.739c9.3,0,16.87-7.569,16.87-16.87
		c0-9.3-7.57-16.869-16.87-16.869C34.16,0,26.594,7.569,26.594,16.869S34.161,33.739,43.461,33.739z M43.461,3.1
		c7.592,0,13.769,6.177,13.769,13.769c0,7.591-6.177,13.767-13.769,13.767c-7.592,0-13.768-6.176-13.768-13.767
		C29.695,9.277,35.87,3.1,43.461,3.1z M27.167,33.883c-9.303,0-16.87,7.566-16.87,16.868c0,9.301,7.567,16.868,16.87,16.868
		c9.302,0,16.868-7.567,16.868-16.868C44.037,41.45,36.47,33.883,27.167,33.883z M27.167,64.521
		c-7.592,0-13.769-6.177-13.769-13.771c0-7.593,6.177-13.769,13.769-13.769c7.591,0,13.768,6.176,13.768,13.769
		C40.936,58.344,34.759,64.521,27.167,64.521z M96.03,33.883c-9.301,0-16.869,7.566-16.869,16.868c0,9.301,7.568,16.87,16.869,16.87
		s16.869-7.569,16.869-16.87C112.899,41.45,105.331,33.883,96.03,33.883z M96.03,64.521c-7.59,0-13.769-6.177-13.769-13.771
		c0-7.591,6.179-13.769,13.769-13.769c7.592,0,13.769,6.178,13.769,13.769C109.798,58.344,103.62,64.521,96.03,64.521z
		 M24.975,41.239l-5.776,16.44h3.739l1.188-3.897h5.969l1.188,3.897h3.741l-5.801-16.44H24.975z M24.998,50.87
		c1.167-3.77,1.872-6.134,2.118-7.089c0.058,0.269,0.157,0.636,0.296,1.096c0.138,0.463,0.756,2.462,1.854,5.993H24.998z
		 M48.555,23.438c1.079-0.837,1.617-2.002,1.617-3.495c0-1.052-0.228-1.896-0.688-2.53c-0.457-0.637-1.205-1.068-2.246-1.302V16
		c0.766-0.127,1.373-0.503,1.834-1.129c0.457-0.629,0.687-1.433,0.687-2.408c0-1.443-0.522-2.494-1.57-3.153
		c-1.052-0.662-2.736-0.991-5.057-0.991h-5.096v16.373h6.126C46.01,24.691,47.476,24.271,48.555,23.438z M41.504,11.161h1.825
		c0.995,0,1.719,0.137,2.181,0.409c0.456,0.272,0.686,0.723,0.686,1.35c0,0.672-0.21,1.154-0.631,1.444
		c-0.423,0.291-1.103,0.438-2.044,0.438h-2.017V11.161z M41.504,21.824v-4.267h2.15c1.942,0,2.913,0.68,2.913,2.039
		c0,0.754-0.229,1.313-0.685,1.678c-0.454,0.367-1.16,0.55-2.118,0.55H41.504z M74.6,22.753c-1.263-1.446-1.894-3.52-1.894-6.222
		c0-1.703,0.311-3.194,0.932-4.474c0.618-1.281,1.51-2.263,2.67-2.944c1.162-0.684,2.521-1.025,4.082-1.025
		c1.592,0,3.189,0.384,4.795,1.154l-1.121,2.821c-0.611-0.29-1.229-0.546-1.847-0.762c-0.62-0.217-1.228-0.324-1.827-0.324
		c-1.307,0-2.318,0.491-3.034,1.472c-0.718,0.981-1.073,2.349-1.073,4.105c0,3.652,1.368,5.476,4.107,5.476
		c1.152,0,2.543-0.288,4.177-0.861v2.91c-1.343,0.562-2.843,0.841-4.502,0.841C77.683,24.92,75.862,24.198,74.6,22.753z
		 M96.188,42.564h-5.142v16.375h4.637c2.897,0,5.114-0.718,6.647-2.151c1.531-1.433,2.302-3.498,2.302-6.193
		c0-2.53-0.739-4.502-2.22-5.913C100.938,43.27,98.862,42.564,96.188,42.564z M96.011,56.072h-1.492V45.41h1.85
		c3.105,0,4.658,1.757,4.658,5.273C101.026,54.275,99.353,56.072,96.011,56.072z M48.738,57.792l-3.616-2.149l1.058-1.779
		l3.616,2.149L48.738,57.792z M77.344,55.025l1.055,1.776l-3.616,2.149l-1.056-1.776L77.344,55.025z M67.88,44.209l5.984-9.804
		l1.762,1.076l-5.984,9.804L67.88,44.209z M48.78,33.889l5.985,9.803L53,44.77l-5.985-9.803L48.78,33.889z M61.998,47.296
		c4.333,0,7.851,3.517,7.851,7.854c0,4.336-3.518,7.854-7.851,7.854c-4.34,0-7.857-3.518-7.857-7.854
		C54.141,50.813,57.658,47.295,61.998,47.296z M67.219,64.914c-0.13-0.079-0.271-0.139-0.406-0.195
		c-0.875-0.584-1.858-1.014-2.862-1.261l-1.952,1.972l-1.9-1.992c-0.007,0-0.013,0.002-0.02,0.002
		c-1.005,0.242-1.992,0.668-2.872,1.25c-0.155,0.064-0.313,0.135-0.464,0.226c-6.098,3.74-9.599,6.697-10.681,24.004
		c-0.104,1.683,1.177,3.13,2.854,3.235c0.068,0.003,0.132,0.005,0.193,0.005c1.598,0,2.94-1.242,3.043-2.858
		c0.365-5.843,0.956-9.629,1.806-12.24v10.562c0,0.822,0.157,1.587,0.438,2.289c-0.021,0.16-0.038,0.32-0.038,0.482l0.007,29.199
		c0,1.989,1.61,3.604,3.602,3.604c1.99,0,3.604-1.614,3.604-3.604l-0.003-25.059c0.143,0.007,0.287,0.018,0.432,0.018
		c0.025,0,0.053-0.002,0.081-0.004v25.045c0,1.989,1.612,3.604,3.604,3.604c1.99,0,3.604-1.614,3.604-3.604l0.002-29.02
		c0.473-0.875,0.748-1.866,0.748-2.952V77.148c0.832,2.607,1.416,6.373,1.776,12.152c0.101,1.615,1.444,2.857,3.04,2.857
		c0.062,0,0.131-0.002,0.191-0.005c1.681-0.104,2.957-1.554,2.854-3.235C76.817,71.612,73.316,68.655,67.219,64.914z M62.013,80.973
		h-0.036l-1.893-2.592l1.893-12.66h0.036l1.896,12.66L62.013,80.973z"/>
</g>
</svg>